<?xml version="1.0" encoding="iso-8859-1"?>
<!-- Uploaded to: SVG Repo, www.svgrepo.com, Generator: SVG Repo Mixer Tools -->
<svg height="800px" width="800px" version="1.1" id="Layer_1" xmlns="http://www.w3.org/2000/svg" xmlns:xlink="http://www.w3.org/1999/xlink" 
	 viewBox="0 0 512 512" xml:space="preserve">
<polygon style="fill:#ABB9C6;" points="346.4,478.938 165.605,478.938 178.512,448.737 183.427,437.253 194.153,412.162 
	317.852,412.162 328.578,437.253 333.492,448.737 "/>
<polygon style="fill:#93A0AA;" points="328.578,437.253 183.427,437.253 194.153,412.162 317.852,412.162 "/>
<path style="fill:#B6C7D3;" d="M393.462,490.425H118.535l0,0c9.791-14.369,26.054-22.967,43.442-22.967h188.043
	C367.409,467.458,383.672,476.056,393.462,490.425L393.462,490.425z"/>
<path style="fill:#ABB9C6;" d="M512,55.095v326.991c0,18.511-14.997,33.52-33.509,33.52H33.509C14.997,415.606,0,400.597,0,382.086
	V55.095c0-18.511,14.997-33.52,33.509-33.52h444.983C497.003,21.575,512,36.584,512,55.095z"/>
<path style="fill:#C5D6E2;" d="M512,55.095v326.991c0,18.511-14.997,33.52-33.509,33.52H180.898l24.552-59.875L342.47,21.575
	h136.021C497.003,21.575,512,36.584,512,55.095z"/>
<path style="fill:#93A0AA;" d="M256.002,393.214c-3.448,0-6.634-2.135-7.958-5.317c-1.465-3.521-0.359-7.694,2.622-10.058
	c6.24-4.949,15.53,0.968,13.723,8.703C263.49,390.388,259.968,393.214,256.002,393.214z"/>
<path style="fill:#B8E9F2;" d="M512,55.095v300.636H0V55.095c0-18.511,14.997-33.52,33.51-33.52h444.983
	C497.003,21.575,512,36.584,512,55.095"/>
<path style="fill:#D4F7FC;" d="M512,55.095v300.636H205.451l137.02-334.156h136.021C497.003,21.575,512,36.584,512,55.095"/>
<polyline style="fill:#DB4949;" points="401.26,120.676 333.12,157.721 333.12,247.959 401.26,285.004 401.26,120.676 "/>
<path style="fill:#F75757;" d="M308.997,117.206H134.866c-13.957,0-25.272,11.315-25.272,25.272v120.725
	c0,13.957,11.315,25.272,25.272,25.272h174.131c13.957,0,25.27-11.315,25.27-25.272V142.477
	C334.269,128.52,322.954,117.206,308.997,117.206"/>
<polyline style="fill:#FFFFFF;" points="272.442,202.84 197.807,159.749 197.807,245.931 272.442,202.84 "/>
<path style="fill:#D4F7FC;" d="M478.491,21.575H342.47l-39.214,95.631h5.741c13.957,0,25.27,11.315,25.27,25.272v14.62
	l66.991-36.421v164.328l-66.991-36.421v14.62c0,13.957-11.315,25.272-25.27,25.272h-75.969l-27.579,67.257H512V55.095
	C512,36.584,497.003,21.575,478.491,21.575"/>
<polyline style="fill:#E06B6B;" points="401.26,120.676 334.269,157.097 334.269,248.584 401.26,285.004 401.26,120.676 "/>
<path style="fill:#F67676;" d="M308.997,117.206h-5.741l-34.291,83.627l3.476,2.007l-5.631,3.252l-33.781,82.382h75.969
	c13.957,0,25.27-11.315,25.27-25.272v-14.62v-91.486v-14.62C334.269,128.52,322.954,117.206,308.997,117.206"/>
<polyline style="fill:#FDFDFD;" points="268.966,200.834 266.811,206.092 272.442,202.84 268.966,200.834 "/>
</svg>